<svg id="logo" xmlns="http://www.w3.org/2000/svg" width="790.31" height="516.61" viewBox="0 0 790.31 516.61">
  <defs>
    <style>
      .cls-1 {
        fill: #4a82c3;
      }

      .cls-2 {
        fill: #b12d25;
      }

      .cls-3 {
        fill: #ffc200;
      }

      .cls-4 {
        fill: #303030;
      }
    </style>
  </defs>
  <g id="vertical-on-white">
    <g>
      <g>
        <path class="cls-1" d="M320.58,134c-19.64,37.07-19.83,72.53.7,107.75,19.86,34.1,51.6,51.77,87.74,63.84-22.87,3.73-44.17-1.32-65-9.2-50.13-19-83.69-54.62-103.46-103.87a130.6,130.6,0,0,1-5-16.4c-3.59-14.05-2.88-14.65,11.36-22,20.58-10.68,42.52-16.63,65.28-20C314.28,133.69,316.44,134,320.58,134Z"/>
        <path class="cls-1" d="M328.52,172.48c9.35,25.28,24.08,42.49,49.41,48.64,6.65,1.62,7.77,7.61,8,12.77,1.1,22.49,6.18,26.85-20.58,17.31-24.24-8.65-37.43-26.52-42.68-50.85C320.75,191.29,323.67,182.69,328.52,172.48Z"/>
      </g>
      <g>
        <path class="cls-2" d="M458.45,102.21C436.59,65.15,405.67,47,365,47.28c-38.83.24-70.78,17.67-99.26,43.28,3.34-11.74,10.71-20.42,17.79-29,44.24-53.37,120-74.85,186.09-53.32,5.19,1.69,8.75,3.28,8.47,10.1C477,46.75,470.3,73.73,458.45,102.21Z"/>
        <path class="cls-2" d="M376.39,64.92c14.67,1,27.73,5,38.05,15.76,1.91,2,3.57,4.24,2,6.55-1.18,1.75-3.74.82-5.94.34-19.83-4.32-37.51,1.81-51.82,14.68-8.28,7.46-14.66,7.58-23.53,3.36-21.51-10.23-20-6.78-3.56-22.75C343.9,70.91,359.78,66.28,376.39,64.92Z"/>
      </g>
      <g>
        <path class="cls-3" d="M419.43,232.23c42.18-.72,72.64-18.42,92.83-52.81,19.53-33.27,21.34-69.13,11.34-108.59,9.25,6.55,11.53,14.4,14.14,21.24q36.82,96.15-26,178.06A80,80,0,0,1,503,279.7c-19.75,18.6-11.2,17.9-33.35,3C450.27,269.61,434,252.81,419.43,232.23Z"/>
        <path class="cls-3" d="M450.9,204.72c11.88-13.88,19.48-29.67,18.74-48.53-.11-2.86-.62-5.76-.31-8.57.6-5.37-5.43-10.94-1.56-15.33a80.83,80.83,0,0,1,22-17c2.73-1.5,3.51-.8,4.89,1.29,20.24,30.59-5.38,84.79-42.3,89.35C452.09,206,451.81,205.53,450.9,204.72Z"/>
      </g>
    </g>
    <g>
      <path class="cls-4" d="M17.2,412.1v16A51.71,51.71,0,0,1,30.78,415.6a33.17,33.17,0,0,1,18.31-5.14,48.76,48.76,0,0,1,17.69,2.88,35.81,35.81,0,0,1,13,8.64Q92.51,434.52,92.5,455.1V515H77.07V455.51q0-14.19-8-22.63t-20.78-8.43a30.73,30.73,0,0,0-22,8.64q-9,8.85-9,22.63V515H1.77V412.1Z"/>
      <path class="cls-4" d="M164.09,502.62q20.78,0,29.83-17.28h16.87a49.71,49.71,0,0,1-17,22.63q-11.62,8.64-29.94,8.64-23.24,0-37.85-15.43-14.19-15-14.19-37.65,0-22.83,13.57-37.64,14.4-15.43,37.45-15.43t37.44,15.43q13.57,14.81,13.58,37.64v6.18h-86.2A37.27,37.27,0,0,0,139,493.16Q148.88,502.63,164.09,502.62Zm-1.23-78.17q-14.21,0-23.87,8.84-9,8.44-11.11,22h70q-2.06-13.59-11.11-22Q177,424.45,162.86,424.45Z"/>
      <path class="cls-4" d="M277.44,410.46q23,0,37.45,15.43,13.58,14.81,13.57,37.64t-13.57,37.65q-14.42,15.44-37.45,15.43T240,501.18q-13.58-14.81-13.58-37.65T240,425.89Q254.4,410.46,277.44,410.46Zm0,92.16q16.67,0,26.34-11.52Q313,480.19,313,463.53T303.78,436q-9.67-11.52-26.34-11.52T251.11,436q-9.26,10.9-9.26,27.56t9.26,27.57Q260.78,502.62,277.44,502.62Z"/>
      <path class="cls-4" d="M367.76,399.66a16.84,16.84,0,0,0-5.25,7.51,28.11,28.11,0,0,0-1.34,8.74q0,4.62,4,8.54A32.48,32.48,0,0,0,375.78,431a108.13,108.13,0,0,0,15,4.73q8.43,2.06,17.18,4.22t17.17,4.94a63.17,63.17,0,0,1,15,7.09q14.61,9.27,14.61,25.31,0,19.13-14.3,29.21t-39.6,10.08q-28.61,0-43.61-11.93Q343.89,494,342,474.23h16q.81,14,13.58,21.4,11.1,6.38,29.41,6.38,38.28,0,38.27-24.07a14.91,14.91,0,0,0-6.89-13,61.33,61.33,0,0,0-17.28-7.82q-10.4-3.09-22.43-5.76a140.39,140.39,0,0,1-22.42-6.89,51.37,51.37,0,0,1-17.28-11.11q-6.9-6.9-6.89-18.62a33.55,33.55,0,0,1,12.75-27.16q12.75-10.49,38.47-10.49,25.92,0,40.12,11.93A35.58,35.58,0,0,1,451.28,416H435.44q-2.06-16.86-21.81-22.42a62.58,62.58,0,0,0-17.38-2.06,55.8,55.8,0,0,0-17.49,2.37A32,32,0,0,0,367.76,399.66Z"/>
      <path class="cls-4" d="M555.58,498.51q-12.33,18.11-36.82,18.1-22.22,0-36.21-15.43Q469,486,469,463.53t13.58-37.64q14-15.43,37.24-15.43t35.79,18.31V412.1H571V515H555.58Zm-34.76,4.11q16.66,0,26.33-11.52,9.26-10.91,9.26-27.57T547.15,436q-9.67-11.52-26.33-11.52-16.47,0-26.75,11.52-9.68,10.9-9.67,27.56t9.67,27.57Q504.36,502.62,520.82,502.62Z"/>
      <path class="cls-4" d="M652.07,410.46v15.43h-1.85q-16.66,0-27.16,13.37-9.87,12.75-9.87,30.45V515H597.76V412.1h15.43v25.31q4.93-16.05,21.39-23.66A37.53,37.53,0,0,1,651,410.46Z"/>
      <path class="cls-4" d="M684.78,374.66v20.16H668.11V374.66Zm-16,37.44h15.43V515H668.73Z"/>
      <path class="cls-4" d="M771.38,439.67q-2.05-16.05-25.81-16.05T721.8,438.44a10.4,10.4,0,0,0,5,9.36A46.35,46.35,0,0,0,739.5,453q7.61,2.07,16.56,3.81a85.14,85.14,0,0,1,16.56,4.94,35.09,35.09,0,0,1,12.65,8.74q5,5.55,5,15.22,0,15-11.31,22.94t-30.66,7.92q-20.57,0-32.71-10.28a31.53,31.53,0,0,1-11.93-23.66h16q1.43,14.19,16,19.13a35.84,35.84,0,0,0,10.6,1.65,72.67,72.67,0,0,0,9.77-.62,39.68,39.68,0,0,0,8.85-2.26q9.87-3.92,9.87-13.38a11.07,11.07,0,0,0-5-9.77,44.31,44.31,0,0,0-12.65-5.55q-7.62-2.16-16.56-3.91a89,89,0,0,1-16.56-4.84,35,35,0,0,1-12.65-8.43q-5.05-5.35-5-14.81,0-14,10.19-21.71t30.14-7.71q18.91,0,29.83,9.05,9,7.62,10.49,20.16Z"/>
    </g>
  </g>
</svg>
