<svg id="logo" xmlns="http://www.w3.org/2000/svg" width="527.93" height="516.61" viewBox="0 0 527.93 516.61">
  <defs>
    <style>
      .cls-1 {
        fill: #4a82c3;
      }

      .cls-2 {
        fill: #b12d25;
      }

      .cls-3 {
        fill: #ffc200;
      }
    </style>
  </defs>
  <g id="icon">
    <g>
      <g>
        <path class="cls-1" d="M144.64,223.1c-32.72,61.75-33,120.8,1.16,179.46,33.09,56.79,85.94,86.22,146.14,106.32-38.09,6.22-73.57-2.21-108.19-15.32-83.49-31.61-139.39-91-172.31-173A217.85,217.85,0,0,1,3,293.25c-6-23.39-4.8-24.39,18.92-36.7,34.28-17.79,70.82-27.69,108.72-33.38C134.14,222.65,137.75,223.1,144.64,223.1Z"/>
        <path class="cls-1" d="M157.86,287.25c15.57,42.11,40.12,70.77,82.29,81,11.08,2.69,12.95,12.67,13.37,21.27,1.83,37.45,10.3,44.71-34.26,28.82-40.38-14.4-62.35-44.17-71.09-84.69C144.92,318.59,149.79,304.26,157.86,287.25Z"/>
      </g>
      <g>
        <path class="cls-2" d="M374.26,170.23c-36.42-61.73-87.9-91.9-155.58-91.49-64.67.4-117.89,29.44-165.32,72.08,5.56-19.55,17.83-34,29.63-48.24,73.68-88.9,199.87-124.67,309.92-88.81,8.65,2.82,14.57,5.46,14.11,16.83C405.1,77.87,394,122.8,374.26,170.23Z"/>
        <path class="cls-2" d="M237.59,108.11c24.43,1.73,46.18,8.33,63.37,26.27,3.18,3.31,6,7.05,3.36,10.9-2,2.92-6.22,1.37-9.89.57-33-7.21-62.47,3-86.3,24.45-13.8,12.41-24.41,12.62-39.19,5.59-35.82-17-33.32-11.3-5.93-37.9C183.48,118.1,209.93,110.38,237.59,108.11Z"/>
      </g>
      <g>
        <path class="cls-3" d="M309.27,386.78c70.25-1.22,121-30.69,154.6-88C496.4,243.41,499.42,183.68,482.76,118c15.41,10.91,19.2,24,23.56,35.37Q567.64,313.47,463,449.9a135.51,135.51,0,0,1-14.56,15.93c-32.89,31-18.65,29.81-55.54,4.95C360.63,449,333.52,421.05,309.27,386.78Z"/>
        <path class="cls-3" d="M361.69,341c19.77-23.12,32.43-49.42,31.2-80.84-.19-4.76-1-9.59-.51-14.27,1-8.94-9.05-18.21-2.59-25.53,10.14-11.5,22.81-20.72,36.54-28.27,4.55-2.5,5.86-1.32,8.15,2.15,33.72,51-9,141.22-70.45,148.81C363.66,343.06,363.19,342.3,361.69,341Z"/>
      </g>
    </g>
  </g>
</svg>
